<?xml version="1.0" encoding="UTF-8" standalone="no"?><!-- Generator: Gravit.io --><svg xmlns="http://www.w3.org/2000/svg" xmlns:xlink="http://www.w3.org/1999/xlink" style="isolation:isolate" viewBox="0 0 34 40" width="34pt" height="40pt"><defs><clipPath id="_clipPath_RJdHiKxb1LkfOR8FfDpfHlWQLbxaNJZ2"><rect width="34" height="40"/></clipPath></defs><g clip-path="url(#_clipPath_RJdHiKxb1LkfOR8FfDpfHlWQLbxaNJZ2)"><path d=" M 16.667 38.333 C 15.742 39.72 15.741 39.72 15.741 39.72 L 15.737 39.716 L 15.725 39.709 L 15.687 39.683 C 15.655 39.661 15.609 39.629 15.549 39.588 C 15.431 39.506 15.261 39.387 15.046 39.232 C 14.618 38.922 14.011 38.47 13.285 37.892 C 11.836 36.738 9.899 35.071 7.957 33.021 C 4.14 28.993 0 23.17 0 16.667 C 0 12.246 1.756 8.007 4.882 4.882 C 8.007 1.756 12.246 0 16.667 0 C 21.087 0 25.326 1.756 28.452 4.882 C 31.577 8.007 33.333 12.246 33.333 16.667 C 33.333 23.17 29.193 28.993 25.377 33.021 C 23.434 35.071 21.498 36.738 20.049 37.892 C 19.323 38.47 18.716 38.922 18.287 39.232 C 18.073 39.387 17.903 39.506 17.784 39.588 C 17.725 39.629 17.679 39.661 17.646 39.683 L 17.608 39.709 L 17.597 39.716 L 17.593 39.719 C 17.593 39.719 17.591 39.72 16.667 38.333 Z  M 16.667 38.333 L 17.591 39.72 C 17.031 40.093 16.301 40.093 15.741 39.72 L 16.667 38.333 L 16.667 38.333 Z " fill-rule="evenodd" fill="rgb(33,91,240)"/><circle vector-effect="non-scaling-stroke" cx="17" cy="16" r="6" fill="rgb(255,255,255)"/></g></svg>